<?xml version="1.0" encoding="utf-8"?>
<!-- Generator: Adobe Illustrator 21.1.0, SVG Export Plug-In . SVG Version: 6.00 Build 0)  -->
<svg version="1.1" id="Calque_1" xmlns="http://www.w3.org/2000/svg" xmlns:xlink="http://www.w3.org/1999/xlink" x="0px" y="0px"
	 viewBox="0 0 255 33" style="enable-background:new 0 0 255 33;" xml:space="preserve">
<style type="text/css">
	.st0{fill:#485156;}
	.st1{fill:#EA5D0B;}
	.st2{fill-rule:evenodd;clip-rule:evenodd;fill:#EA5D0B;}
	.st3{fill-rule:evenodd;clip-rule:evenodd;fill:#F18B00;}
</style>
<g>
	<path class="st0" d="M46.3,23.6c1.4,1.2,2.9,1.7,4.7,1.7c1.1,0,1.9-0.2,2.4-0.6c0.5-0.4,0.8-0.9,0.8-1.5c0-0.5-0.2-1-0.7-1.5
		c-0.4-0.4-1.5-1-3.2-1.8c-1.4-0.7-2.5-1.4-3.1-2.2c-0.6-0.8-1-1.8-1-2.9c0-1.6,0.6-2.9,1.8-3.8c1.2-0.9,2.8-1.4,4.7-1.4
		c1.8,0,3.1,0.2,4.1,0.7v3.3c-1.1-0.8-2.5-1.2-4-1.2c-0.9,0-1.7,0.2-2.3,0.5c-0.6,0.4-0.9,0.9-0.9,1.5c0,0.5,0.2,1,0.6,1.4
		c0.4,0.4,1.3,1,2.8,1.6c1.7,0.8,2.9,1.6,3.5,2.4c0.7,0.8,1,1.8,1,3c0,1.7-0.6,2.9-1.7,3.8c-1.2,0.9-2.8,1.3-4.9,1.3
		c-1.9,0-3.5-0.3-4.8-1V23.6L46.3,23.6z"/>
	<path class="st0" d="M81.8,32.7C81,32.9,80.2,33,79.3,33c-1.1,0-2.2-0.3-3.3-0.9c-1-0.6-2.4-2-4.2-4c-2.4-0.1-4.3-0.9-5.7-2.6
		c-1.4-1.7-2.2-3.8-2.2-6.3c0-2.8,0.8-5.1,2.3-6.8c1.5-1.7,3.6-2.6,6.3-2.6c2.4,0,4.4,0.8,5.9,2.5c1.5,1.7,2.3,3.8,2.3,6.5
		c0,2.2-0.5,4-1.4,5.6c-1,1.6-2.3,2.6-4.1,3.2c0.8,0.9,1.6,1.5,2.3,1.9C78.2,29.8,79,30,80,30c0.7,0,1.3-0.1,1.7-0.3V32.7L81.8,32.7
		z M67.5,19c0,1.9,0.4,3.4,1.3,4.5c0.9,1.1,2,1.7,3.5,1.7c1.5,0,2.7-0.5,3.6-1.6c0.9-1.1,1.3-2.6,1.3-4.5c0-2-0.4-3.5-1.3-4.6
		c-0.8-1.1-2-1.7-3.5-1.7c-1.5,0-2.7,0.6-3.6,1.7C68,15.6,67.5,17.1,67.5,19L67.5,19z"/>
	<path class="st0" d="M101.8,20.3c0,5.2-2.4,7.8-7.1,7.8c-4.5,0-6.8-2.5-6.8-7.6V10.1h3.4v10.4c0,3.1,1.2,4.6,3.6,4.6
		c2.4,0,3.5-1.5,3.5-4.5V10.1h3.3V20.3L101.8,20.3z"/>
	<path class="st0" d="M124.1,27.8h-3.6l-1.4-4.2h-6.5l-1.4,4.2h-3.6l6.4-17.7h3.9L124.1,27.8L124.1,27.8z M118.2,20.8l-2.1-6.4
		c-0.1-0.3-0.2-0.7-0.3-1.5h-0.1c-0.1,0.5-0.2,1-0.3,1.4l-2.1,6.5H118.2L118.2,20.8z"/>
	<path class="st0" d="M144.6,27.8h-3.9l-2.7-4.7c-0.6-0.9-1-1.6-1.4-1.9c-0.4-0.3-0.8-0.4-1.3-0.4h-1.2v7h-3.3V10.1h5.9
		c4,0,6,1.6,6,4.8c0,1.2-0.3,2.2-1,3.1c-0.7,0.9-1.6,1.5-2.9,1.8v0c0.8,0.3,1.7,1.2,2.6,2.7L144.6,27.8L144.6,27.8z M134.1,12.7v5.4
		h2c0.9,0,1.6-0.3,2.2-0.8c0.5-0.5,0.8-1.2,0.8-2c0-1.7-1-2.5-2.9-2.5H134.1L134.1,12.7z"/>
	<polygon class="st0" points="160.8,27.8 150.8,27.8 150.8,10.1 160.4,10.1 160.4,12.9 154.1,12.9 154.1,17.4 160,17.4 160,20.3 
		154.1,20.3 154.1,25 160.8,25 160.8,27.8 	"/>
	<path class="st0" d="M167.5,24.7c0.5,0.5,1.2,0.9,2.1,1.1c0.9,0.3,1.7,0.4,2.5,0.4c2.5,0,3.8-0.9,3.8-2.8c0-0.5-0.1-1-0.4-1.4
		c-0.3-0.4-0.6-0.8-1-1c-0.4-0.3-1.3-0.8-2.6-1.5c-1.6-0.9-2.7-1.6-3.4-2.4c-0.6-0.7-0.9-1.6-0.9-2.7c0-1.4,0.6-2.6,1.7-3.4
		c1.1-0.8,2.6-1.3,4.2-1.3c1.7,0,2.9,0.2,3.7,0.6v2.2c-1-0.7-2.3-1.1-3.9-1.1c-1.1,0-2,0.2-2.7,0.7c-0.7,0.5-1,1.2-1,2
		c0,0.8,0.2,1.4,0.7,1.9c0.5,0.5,1.5,1.1,3,1.9c1.8,0.9,3,1.8,3.6,2.6c0.6,0.8,0.9,1.7,0.9,2.7c0,1.5-0.5,2.7-1.6,3.5
		c-1.1,0.8-2.6,1.2-4.5,1.2c-0.6,0-1.4-0.1-2.3-0.3c-0.9-0.2-1.6-0.4-2-0.7V24.7L167.5,24.7z"/>
	<path class="st0" d="M197.4,27c-1.3,0.7-2.9,1.1-4.7,1.1c-2.4,0-4.4-0.8-5.9-2.5c-1.5-1.6-2.2-3.8-2.2-6.4c0-2.7,0.8-5,2.5-6.8
		c1.6-1.8,3.7-2.7,6.3-2.7c1.6,0,3,0.2,4.1,0.7v2.1c-1.2-0.7-2.6-1-4.1-1c-2.1,0-3.7,0.7-4.9,2.1c-1.2,1.4-1.8,3.2-1.8,5.5
		c0,2.1,0.6,3.9,1.7,5.2c1.1,1.3,2.7,2,4.6,2c1.7,0,3.2-0.4,4.5-1.2V27L197.4,27z"/>
	<path class="st0" d="M218.6,27.8h-2.1l-1.9-5h-7.4l-1.7,5h-2.1l6.6-17.7h1.9L218.6,27.8L218.6,27.8z M214,21l-2.8-7.7
		c-0.1-0.3-0.2-0.7-0.3-1.2h-0.1c-0.1,0.6-0.2,0.9-0.3,1.2l-2.7,7.7H214L214,21z"/>
	<polygon class="st0" points="234.4,27.8 225.5,27.8 225.5,10.1 227.4,10.1 227.4,26 234.4,26 234.4,27.8 	"/>
	<polygon class="st0" points="250.5,27.8 241.4,27.8 241.4,10.1 250.1,10.1 250.1,11.9 243.3,11.9 243.3,17.9 249.6,17.9 
		249.6,19.7 243.3,19.7 243.3,26 250.5,26 250.5,27.8 	"/>
	<path class="st1" d="M14.6,2c4,0,7.7,1.7,10.3,4.4c0.7,0.7,1.2,1.4,1.8,2.2l0,0l0,0l0,0l0,0l0,0l0,0.1l0,0l0,0
		c0.5,0.9,1,1.8,1.4,2.7l0,0.1H4.3c-0.6,1.2-1,2.5-1.2,3.9h22.9h3c0.4,4.4-1.1,8.9-4.2,12.1c-2.6,2.7-6.3,4.4-10.3,4.4
		c-4,0-7.7-1.7-10.3-4.4C3.6,27,3,26.2,2.5,25.4l0,0c-0.6-0.8-1-1.7-1.4-2.7l0,0l0,0l0,0l0,0l0,0l0-0.1l0,0l0,0l0-0.1h3.3h20.6
		c0.6-1.2,1-2.5,1.2-3.9H3.1h-3c-0.1-1-0.1-1.9,0-2.9l0,0l0,0l0,0l0,0l0,0l0,0c0.2-2.5,1.1-4.8,2.4-6.8l0,0l0,0
		C3,7.8,3.6,7.1,4.3,6.4C6.9,3.7,10.6,2,14.6,2L14.6,2z M22.8,8.6c-2.1-2.1-5-3.5-8.2-3.5c-3.2,0-6.1,1.3-8.2,3.5H22.8L22.8,8.6z
		 M22.8,25.4H6.4c2.1,2.1,5,3.5,8.2,3.5C17.8,28.9,20.7,27.6,22.8,25.4L22.8,25.4z"/>
	<polygon class="st2" points="30.8,5.8 30.8,11.7 36.5,11.7 36.5,5.8 30.8,5.8 	"/>
	<polygon class="st3" points="30.8,5.8 30.8,2.9 27.9,2.9 27.9,5.8 30.8,5.8 	"/>
	<polygon class="st3" points="42.2,5.8 42.2,0 36.5,0 36.5,5.8 42.2,5.8 	"/>
</g>
</svg>
